<svg width="16" height="16" viewBox="0 0 16 16" fill="none" xmlns="http://www.w3.org/2000/svg">
<path d="M4.95086 12.6052C5.50376 12.6052 5.95675 13.0678 5.95675 13.6393C5.95675 14.204 5.50376 14.6666 4.95086 14.6666C4.3913 14.6666 3.93832 14.204 3.93832 13.6393C3.93832 13.0678 4.3913 12.6052 4.95086 12.6052ZM12.445 12.6052C12.9979 12.6052 13.4509 13.0678 13.4509 13.6393C13.4509 14.204 12.9979 14.6666 12.445 14.6666C11.8855 14.6666 11.4325 14.204 11.4325 13.6393C11.4325 13.0678 11.8855 12.6052 12.445 12.6052ZM1.85214 1.33339L1.92002 1.33914L3.50879 1.58338C3.73528 1.62488 3.90181 1.8147 3.9218 2.04601L4.04837 3.56997C4.06835 3.78836 4.24155 3.95164 4.45472 3.95164H13.451C13.8574 3.95164 14.1238 4.09451 14.3903 4.40747C14.6568 4.72043 14.7034 5.16945 14.6434 5.57697L14.0106 10.04C13.8907 10.8979 13.1713 11.5299 12.3252 11.5299H5.05758C4.1716 11.5299 3.43884 10.8367 3.36556 9.93863L2.75271 2.52225L1.74683 2.34536C1.48037 2.29774 1.29385 2.0324 1.34048 1.76027C1.38711 1.48201 1.6469 1.29764 1.92002 1.33914L1.85214 1.33339ZM11.2594 6.46822H9.41418C9.1344 6.46822 8.91457 6.69273 8.91457 6.97847C8.91457 7.25741 9.1344 7.48873 9.41418 7.48873H11.2594C11.5392 7.48873 11.759 7.25741 11.759 6.97847C11.759 6.69273 11.5392 6.46822 11.2594 6.46822Z" fill="#2E4457"/>
</svg>
