<svg width="24" height="24" viewBox="0 0 24 24" fill="none" xmlns="http://www.w3.org/2000/svg">
<path d="M16.191 1.99998C19.28 1.99998 21 3.77998 21 6.82998V17.16C21 20.26 19.28 22 16.191 22H7.81C4.77 22 3 20.26 3 17.16V6.82998C3 3.77998 4.77 1.99998 7.81 1.99998H16.191ZM8.08 15.74C7.78 15.71 7.49 15.85 7.33 16.11C7.17 16.36 7.17 16.69 7.33 16.95C7.49 17.2 7.78 17.35 8.08 17.31H15.92C16.319 17.27 16.62 16.929 16.62 16.53C16.62 16.12 16.319 15.78 15.92 15.74H8.08ZM15.92 11.179H8.08C7.649 11.179 7.3 11.53 7.3 11.96C7.3 12.39 7.649 12.74 8.08 12.74H15.92C16.35 12.74 16.7 12.39 16.7 11.96C16.7 11.53 16.35 11.179 15.92 11.179ZM11.069 6.64998H8.08V6.65998C7.649 6.65998 7.3 7.00998 7.3 7.43998C7.3 7.86998 7.649 8.21998 8.08 8.21998H11.069C11.5 8.21998 11.85 7.86998 11.85 7.42898C11.85 6.99998 11.5 6.64998 11.069 6.64998Z" fill="#E9F2FF"/>
</svg>
